# xmcd
#
# Track frame offsets: 
#        182
#        38155
#        76565
#        103625
#        131077
#        158527
#        181587
#        208577
#        234310
#        258865
#        290917
#        316170
#
# Disc length: 4570 seconds
#
# Revision: 4
# Processed by: cddbd v1.5.2PL0 Copyright (c) Steve Scherf et al.
# Submitted via: ExactAudioCopyFreeDBPlugin 1.0
#
DISCID=9111d80c
DTITLE=Various Artist - Smooth Grooves:  After Hours Cool Down [Rhino
DTITLE=]
DYEAR=2002
DGENRE=SMB
TTITLE0=New Edition - You're Not My Kind of Girl (extended version)
TTITLE1=Stephanie Mills - (You're Puttin') A Rush on Me (extended club
TTITLE1=mix)
TTITLE2=Soul II Soul - Keep on Movin' (Teddy Riley's Rubba Dub)
TTITLE3=Daryl Hall and John Oates - I Can't Go for That, No Can Do (12''
TTITLE3=version)
TTITLE4=Five Star - Let Me Be the One (Philadelphia remix)
TTITLE5=Human League - Human (extended version)
TTITLE6=Charme - Georgy Porgy (remixed version) (ft Luther Vandross)
TTITLE7=Keith Sweat and Jacci McGhee - Make it Last Forever (extended ve
TTITLE7=rsion)
TTITLE8=R.J.'s Latest Arrival - Heaven in Your Arms (extended version)
TTITLE9=Change - Change of Heart
TTITLE10=Billy Ocean - Love Zone
TTITLE11=The B.B. and Q. Band - On the Beat
EXTD=
EXTT0=
EXTT1=
EXTT2=
EXTT3=
EXTT4=
EXTT5=
EXTT6=
EXTT7=
EXTT8=
EXTT9=
EXTT10=
EXTT11=
PLAYORDER=
